# xmcd CD database file
#
# Track frame offsets:
#	150
#	17690
#	35192
#	45845
#
# Disc length: 870 seconds
#
# Revision: 0
# Processed by: cddbd v1.5.1PL0 Copyright (c) Steve Scherf et al.
# Submitted via: CDex 1.51
#
DISCID=27036404
DTITLE=両津勘吉(ラサール石井) and 大江戸台風族 - ジュゲム 〜こち亀バージョン
DYEAR=2004
DGENRE=JPop
TTITLE0=ジュゲム 〜こち亀バージョン
TTITLE1=ジュゲム 〜こち亀バージョン (カラオケバージョン)
TTITLE2=ジュゲム 〜こち亀バージョン (Remix)
TTITLE3=Here Comes The Typhoon (Remix)
EXTD=YEAR: 2004
EXTT0=
EXTT1=
EXTT2=
EXTT3=
PLAYORDER=
